# xmcd
#
# Track frame offsets: 
#        150
#        15603
#        29691
#        41462
#        53709
#        67146
#        82158
#        94741
#        108199
#        137506
#        148843
#        166032
#        178265
#        193228
#        209584
#        224939
#        239314
#        254487
#        269366
#        287129
#        304773
#        317412
#
# Disc length: 4441 seconds
#
# Revision: 1
# Processed by: cddbd v1.5PL3 Copyright (c) Steve Scherf et al.
# Submitted via: ExactAudioCopy v0.90b4
#
DISCID=58115716
DTITLE=John Conlee - Classics
DYEAR=2003
DGENRE=Country
TTITLE0=Rose Colored Glasses
TTITLE1=Lady Lay Down
TTITLE2=Backside Of Thirty
TTITLE3=Before My Time
TTITLE4=Baby, You're Something
TTITLE5=Friday Night Blues
TTITLE6=She Can't Say That Anymore
TTITLE7=What I Had With You
TTITLE8=Miss Emily's Picture
TTITLE9=Busted
TTITLE10=I Don't Remember You
TTITLE11=Common Man
TTITLE12=I'm Only In It For The Love
TTITLE13=In My Eyes
TTITLE14=As Long As I'm Rockin' With You
TTITLE15=Way Back
TTITLE16=Years After You
TTITLE17=Blue Highway
TTITLE18=Old School
TTITLE19=From Your Knees
TTITLE20=She's Mine
TTITLE21=How High Did You Go?
EXTD=
EXTT0=
EXTT1=
EXTT2=
EXTT3=
EXTT4=
EXTT5=
EXTT6=
EXTT7=
EXTT8=
EXTT9=
EXTT10=
EXTT11=
EXTT12=
EXTT13=
EXTT14=
EXTT15=
EXTT16=
EXTT17=
EXTT18=
EXTT19=
EXTT20=
EXTT21=
PLAYORDER=
